<svg id="Layer_1" data-name="Layer 1" xmlns="http://www.w3.org/2000/svg" xmlns:xlink="http://www.w3.org/1999/xlink" viewBox="0 0 706.34 794.26"><defs><style>.cls-1{font-size:94px;fill:#0d2660;font-family:Merriweather-Black, Merriweather;font-weight:800;}.cls-2{fill:url(#linear-gradient);}.cls-3{fill:url(#linear-gradient-2);}.cls-4{fill:url(#linear-gradient-3);}.cls-5{fill:url(#linear-gradient-4);}.cls-6{fill:url(#linear-gradient-5);}.cls-7{fill:url(#linear-gradient-6);}.cls-8{fill:url(#linear-gradient-7);}.cls-9{fill:url(#linear-gradient-8);}.cls-10{fill:url(#linear-gradient-9);}.cls-11{fill:url(#linear-gradient-10);}.cls-12{fill:url(#linear-gradient-11);}.cls-13{fill:url(#linear-gradient-12);}.cls-14{fill:url(#linear-gradient-13);}.cls-15{fill:url(#linear-gradient-14);}.cls-16{fill:url(#linear-gradient-15);}.cls-17{fill:url(#linear-gradient-16);}.cls-18{font-size:36px;fill:#2b54d6;font-family:Lato-Regular, Lato;}.cls-19{letter-spacing:-0.03em;}</style><linearGradient id="linear-gradient" x1="195.98" y1="259.92" x2="525.94" y2="259.92" gradientUnits="userSpaceOnUse"><stop offset="0" stop-color="#3f61dc"/><stop offset="1" stop-color="#152088"/></linearGradient><linearGradient id="linear-gradient-2" x1="259.3" y1="224.19" x2="279.42" y2="224.19" gradientTransform="translate(39.39 -40.25) rotate(9.22)" xlink:href="#linear-gradient"/><linearGradient id="linear-gradient-3" x1="319.75" y1="154.76" x2="339.87" y2="154.76" gradientTransform="translate(29.05 -50.83) rotate(9.22)" xlink:href="#linear-gradient"/><linearGradient id="linear-gradient-4" x1="456.16" y1="291.24" x2="476.28" y2="291.24" gradientTransform="translate(52.67 -70.92) rotate(9.22)" xlink:href="#linear-gradient"/><linearGradient id="linear-gradient-5" x1="333.89" y1="245.85" x2="354.01" y2="245.85" gradientTransform="translate(43.82 -51.92) rotate(9.22)" xlink:href="#linear-gradient"/><linearGradient id="linear-gradient-6" x1="291.94" y1="378.18" x2="312.06" y2="378.18" gradientTransform="translate(64.48 -43.49) rotate(9.22)" xlink:href="#linear-gradient"/><linearGradient id="linear-gradient-7" x1="401.43" y1="143.29" x2="421.55" y2="143.29" gradientTransform="translate(28.27 -64.06) rotate(9.22)" xlink:href="#linear-gradient"/><linearGradient id="linear-gradient-8" x1="373.56" y1="368.12" x2="393.68" y2="368.12" gradientTransform="translate(63.92 -56.7) rotate(9.22)" xlink:href="#linear-gradient"/><linearGradient id="linear-gradient-9" x1="453.19" y1="182.99" x2="473.3" y2="182.99" gradientTransform="translate(35.29 -71.84) rotate(9.22)" xlink:href="#linear-gradient"/><linearGradient id="linear-gradient-10" x1="266.07" y1="280.64" x2="286.18" y2="280.64" gradientTransform="translate(48.52 -40.61) rotate(9.22)" xlink:href="#linear-gradient"/><linearGradient id="linear-gradient-11" x1="189.18" y1="305.52" x2="269.89" y2="305.52" xlink:href="#linear-gradient"/><linearGradient id="linear-gradient-12" x1="186.3" y1="284.98" x2="471.16" y2="284.98" xlink:href="#linear-gradient"/><linearGradient id="linear-gradient-13" x1="272.51" y1="329.9" x2="303.46" y2="329.9" xlink:href="#linear-gradient"/><linearGradient id="linear-gradient-14" x1="329.74" y1="222.06" x2="468.22" y2="222.06" xlink:href="#linear-gradient"/><linearGradient id="linear-gradient-15" x1="343.9" y1="214.82" x2="464.81" y2="214.82" xlink:href="#linear-gradient"/><linearGradient id="linear-gradient-16" x1="409.93" y1="126.14" x2="463.21" y2="126.14" xlink:href="#linear-gradient"/></defs><text class="cls-1" transform="translate(137.11 569.65)">FEnFiSDi</text><path class="cls-2" d="M361,424.9c-91,0-165-74-165-165s74-165,165-165,165,74,165,165S451.93,424.9,361,424.9Zm0-322c-86.56,0-157,70.42-157,157s70.42,157,157,157,157-70.42,157-157S447.51,102.94,361,102.94Z"/><circle class="cls-3" cx="269.36" cy="224.19" r="10.06" transform="matrix(0.99, -0.16, 0.16, 0.99, -32.43, 46.04)"/><circle class="cls-4" cx="329.81" cy="154.76" r="10.06" transform="translate(-20.53 54.83) rotate(-9.22)"/><circle class="cls-5" cx="466.22" cy="291.24" r="10.06" transform="translate(-40.63 78.44) rotate(-9.22)"/><circle class="cls-6" cx="343.95" cy="245.85" r="10.06" transform="translate(-34.94 58.27) rotate(-9.22)"/><circle class="cls-7" cx="302" cy="378.18" r="10.06" transform="matrix(0.99, -0.16, 0.16, 0.99, -56.68, 53.26)"/><circle class="cls-8" cx="411.49" cy="143.29" r="10.06" transform="translate(-17.64 67.76) rotate(-9.22)"/><circle class="cls-9" cx="383.62" cy="368.12" r="10.06" transform="matrix(0.99, -0.16, 0.16, 0.99, -54.01, 66.2)"/><circle class="cls-10" cx="463.24" cy="182.99" r="10.06" transform="translate(-23.33 76.57) rotate(-9.22)"/><circle class="cls-11" cx="276.13" cy="280.64" r="10.06" transform="translate(-41.39 47.85) rotate(-9.22)"/><path class="cls-12" d="M260.22,388.77c-47.83-19.66-73-49.15-70.92-83,1.1-17.81,10-36.12,25.06-51.56a122,122,0,0,1,54.47-31.9l1.06,3.86c-41.56,11.34-74.48,45.67-76.59,79.85-2,32,22.32,60.15,68.44,79.1Z"/><path class="cls-13" d="M443.74,425.87c-7.09,0-15.19-2.52-23.78-7.49-22.45-13-36.76-34.28-38.22-47.95-15.16.9-56-18.78-96.31-46.73-24.57-17.05-83.15-61.42-96.44-105.22-4.86-16-3.12-30.27,5.17-42.4,9.1-13.31,26.22-24.07,50.9-32l1.22,3.81c-45.07,14.47-63.05,37.83-53.46,69.43,9.1,30,43.69,67.57,94.89,103.09,41.46,28.76,79.55,46.09,92.78,46.09a9.62,9.62,0,0,0,2.58-.3l2.56-.73v2.66c-.07,13.92,16.58,35.35,36.35,46.79,12.76,7.38,24.09,8.95,31.92,4.41,8.8-5.11,13.39-18.19,13.27-37.83l4,0c.13,21.45-5,35.35-15.27,41.31A23.83,23.83,0,0,1,443.74,425.87Z"/><path class="cls-14" d="M300.54,379.55c-37.75-40.33-26.49-98.72-26.38-99.3l3.93.79c-.12.56-10.94,57,25.37,95.78Z"/><path class="cls-15" d="M464.23,291.39c-2.37-31.78-10.89-58.61-25.34-79.76A119.72,119.72,0,0,0,393.32,172c-32-16.13-63.13-15.22-63.44-15.21l-.14-4c1.3,0,32.37-1,65.24,15.56a123.81,123.81,0,0,1,47.15,41C457,231,465.79,258.56,468.22,291.09Z"/><path class="cls-16" d="M346.41,247.88l-2.51,0,.1-4q1.22,0,2.43,0c65.26,0,114.75-61.5,115.25-62.13l3.13,2.49a204.84,204.84,0,0,1-34.43,32.39C411.15,231,381.16,247.88,346.41,247.88Z"/><path class="cls-17" d="M413,144.55,409.93,142c3.3-4.07,32.62-39.55,46.55-33.63,6,2.53,7.93,11.35,6,26.95l-4-.49c1.6-13,.31-21.11-3.61-22.78C446.48,108.49,424.76,130.1,413,144.55Z"/><text class="cls-18" transform="translate(104.41 641.99)"><tspan class="cls-19">F</tspan><tspan x="19.3" y="0">undamentos y Enseñanza de la </tspan><tspan x="8.69" y="43.2">Física y los Sistemas Dinámicos</tspan></text></svg>